STARTFONT 2.1
FONT -Adobe-Interim DM-Medium-I-Normal--14-140-75-75-P-140-DEC-DECMATH_EXTENSION
SIZE 14 75 75
FONTBOUNDINGBOX 17 31 0 -8

STARTPROPERTIES 25
FONTNAME_REGISTRY ""
FAMILY_NAME "Interim DM"
FOUNDRY "Adobe"
WEIGHT_NAME "Medium"
SETWIDTH_NAME "Normal"
SLANT "I"
ADD_STYLE_NAME ""
PIXEL_SIZE 14
POINT_SIZE 140
RESOLUTION_X 75
RESOLUTION_Y 75
SPACING "P"
AVERAGE_WIDTH 140
CHARSET_REGISTRY "DEC"
CHARSET_ENCODING "DECMATH_EXTENSION"
CHARSET_COLLECTIONS "DECMATH_EXTENSION"
CAP_HEIGHT 10
X_HEIGHT 7
FULL_NAME "Interim DEC Math Extension Screen"
COPYRIGHT "Copyright (c) 1984, 1987 Adobe Systems Incorporated"
WEIGHT 10
QUAD_WIDTH 11
DEFAULT_CHAR 32
FONT_DESCENT 3
FONT_ASCENT 11
ENDPROPERTIES

CHARS 128

STARTCHAR parenleft-4
ENCODING 32
SWIDTH 333 0
DWIDTH 8 0
BBX 6 22 1 -5
BITMAP
0C
18
30
20
60
60
40
C0
C0
C0
C0
C0
C0
C0
C0
40
60
60
20
30
18
0C
ENDCHAR

STARTCHAR parenright-4
ENCODING 33
SWIDTH 333 0
DWIDTH 8 0
BBX 6 22 1 -5
BITMAP
C0
60
30
10
18
18
08
0C
0C
0C
0C
0C
0C
0C
0C
08
18
18
10
30
60
C0
ENDCHAR

STARTCHAR bracketleft-4
ENCODING 34
SWIDTH 333 0
DWIDTH 8 0
BBX 5 22 2 -5
BITMAP
F8
C0
C0
C0
C0
C0
C0
C0
C0
C0
C0
C0
C0
C0
C0
C0
C0
C0
C0
C0
C0
F8
ENDCHAR

STARTCHAR bracketright-4
ENCODING 35
SWIDTH 333 0
DWIDTH 8 0
BBX 5 22 1 -5
BITMAP
F8
18
18
18
18
18
18
18
18
18
18
18
18
18
18
18
18
18
18
18
18
F8
ENDCHAR

STARTCHAR bracketleftbt-4
ENCODING 36
SWIDTH 384 0
DWIDTH 10 0
BBX 7 28 1 -5
BITMAP
C0
C0
C0
C0
C0
C0
C0
C0
C0
C0
C0
C0
C0
C0
C0
C0
C0
C0
C0
C0
C0
C0
C0
C0
C0
C0
C0
FE
ENDCHAR

STARTCHAR bracketrightbt-4
ENCODING 37
SWIDTH 384 0
DWIDTH 10 0
BBX 7 28 2 -5
BITMAP
06
06
06
06
06
06
06
06
06
06
06
06
06
06
06
06
06
06
06
06
06
06
06
06
06
06
06
FE
ENDCHAR

STARTCHAR bracketlefttp-4
ENCODING 38
SWIDTH 384 0
DWIDTH 10 0
BBX 7 28 1 -5
BITMAP
FE
C0
C0
C0
C0
C0
C0
C0
C0
C0
C0
C0
C0
C0
C0
C0
C0
C0
C0
C0
C0
C0
C0
C0
C0
C0
C0
C0
ENDCHAR

STARTCHAR bracketrighttp-4
ENCODING 39
SWIDTH 384 0
DWIDTH 10 0
BBX 7 28 2 -5
BITMAP
FE
06
06
06
06
06
06
06
06
06
06
06
06
06
06
06
06
06
06
06
06
06
06
06
06
06
06
06
ENDCHAR

STARTCHAR braceleft-4
ENCODING 40
SWIDTH 480 0
DWIDTH 10 0
BBX 8 22 1 -5
BITMAP
07
0C
18
18
18
18
18
10
30
20
C0
20
30
10
18
18
18
18
18
18
0C
07
ENDCHAR

STARTCHAR braceright-4
ENCODING 41
SWIDTH 480 0
DWIDTH 10 0
BBX 8 22 1 -5
BITMAP
E0
30
18
18
18
18
18
08
0C
04
03
04
0C
08
18
18
18
18
18
18
30
E0
ENDCHAR

STARTCHAR angleleft-4
ENCODING 42
SWIDTH 329 0
DWIDTH 8 0
BBX 7 22 0 -5
BITMAP
06
06
0C
0C
18
18
30
30
60
60
C0
C0
60
60
30
30
18
18
0C
0C
06
06
ENDCHAR

STARTCHAR angleright-4
ENCODING 43
SWIDTH 329 0
DWIDTH 8 0
BBX 7 22 1 -5
BITMAP
C0
C0
60
60
30
30
18
18
0C
0C
06
06
0C
0C
18
18
30
30
60
60
C0
C0
ENDCHAR

STARTCHAR slash-4
ENCODING 44
SWIDTH 278 0
DWIDTH 7 0
BBX 7 17 0 0
BITMAP
06
06
06
0C
0C
0C
18
18
30
30
30
60
60
60
C0
C0
C0
ENDCHAR

STARTCHAR backslash-4
ENCODING 45
SWIDTH 606 0
DWIDTH 10 0
BBX 7 14 1 0
BITMAP
80
80
40
40
20
20
10
10
08
08
04
04
02
02
ENDCHAR

STARTCHAR slash-2
ENCODING 46
SWIDTH 278 0
DWIDTH 7 0
BBX 7 17 0 0
BITMAP
06
06
06
0C
0C
0C
18
18
30
30
30
60
60
60
C0
C0
C0
ENDCHAR

STARTCHAR backslash-2
ENCODING 47
SWIDTH 606 0
DWIDTH 10 0
BBX 7 14 1 0
BITMAP
80
80
40
40
20
20
10
10
08
08
04
04
02
02
ENDCHAR

STARTCHAR parenlefttp-extension
ENCODING 48
SWIDTH 384 0
DWIDTH 10 0
BBX 9 31 1 -8
BITMAP
0180
0300
0600
0C00
1800
1800
3000
3000
6000
6000
6000
6000
C000
C000
C000
C000
C000
C000
C000
C000
C000
C000
C000
C000
C000
C000
C000
C000
C000
C000
C000
ENDCHAR

STARTCHAR parenrighttp-extension
ENCODING 49
SWIDTH 384 0
DWIDTH 10 0
BBX 9 31 0 -8
BITMAP
C000
6000
3000
1800
0C00
0C00
0600
0600
0300
0300
0300
0300
0180
0180
0180
0180
0180
0180
0180
0180
0180
0180
0180
0180
0180
0180
0180
0180
0180
0180
0180
ENDCHAR

STARTCHAR bracketlefttp-extension
ENCODING 50
SWIDTH 384 0
DWIDTH 10 0
BBX 7 28 1 -5
BITMAP
FE
C0
C0
C0
C0
C0
C0
C0
C0
C0
C0
C0
C0
C0
C0
C0
C0
C0
C0
C0
C0
C0
C0
C0
C0
C0
C0
C0
ENDCHAR

STARTCHAR bracketrighttp-extension
ENCODING 51
SWIDTH 384 0
DWIDTH 10 0
BBX 7 28 2 -5
BITMAP
FE
06
06
06
06
06
06
06
06
06
06
06
06
06
06
06
06
06
06
06
06
06
06
06
06
06
06
06
ENDCHAR

STARTCHAR bracketleftbt-extension
ENCODING 52
SWIDTH 384 0
DWIDTH 10 0
BBX 7 28 1 -5
BITMAP
C0
C0
C0
C0
C0
C0
C0
C0
C0
C0
C0
C0
C0
C0
C0
C0
C0
C0
C0
C0
C0
C0
C0
C0
C0
C0
C0
FE
ENDCHAR

STARTCHAR bracketrightbt-extension
ENCODING 53
SWIDTH 384 0
DWIDTH 10 0
BBX 7 28 2 -5
BITMAP
06
06
06
06
06
06
06
06
06
06
06
06
06
06
06
06
06
06
06
06
06
06
06
06
06
06
06
FE
ENDCHAR

STARTCHAR bracketleftex-extension
ENCODING 54
SWIDTH 384 0
DWIDTH 10 0
BBX 2 28 1 -5
BITMAP
C0
C0
C0
C0
C0
C0
C0
C0
C0
C0
C0
C0
C0
C0
C0
C0
C0
C0
C0
C0
C0
C0
C0
C0
C0
C0
C0
C0
ENDCHAR

STARTCHAR bracketrightex-extension
ENCODING 55
SWIDTH 384 0
DWIDTH 10 0
BBX 2 28 7 -5
BITMAP
C0
C0
C0
C0
C0
C0
C0
C0
C0
C0
C0
C0
C0
C0
C0
C0
C0
C0
C0
C0
C0
C0
C0
C0
C0
C0
C0
C0
ENDCHAR

STARTCHAR bracelefttp-extension
ENCODING 56
SWIDTH 494 0
DWIDTH 12 0
BBX 7 28 5 -5
BITMAP
1E
30
60
60
C0
C0
C0
C0
C0
C0
C0
C0
C0
C0
C0
C0
C0
C0
C0
C0
C0
C0
C0
C0
C0
C0
C0
C0
ENDCHAR

STARTCHAR bracerighttp-extension
ENCODING 57
SWIDTH 494 0
DWIDTH 12 0
BBX 7 28 0 -5
BITMAP
F0
18
0C
0C
06
06
06
06
06
06
06
06
06
06
06
06
06
06
06
06
06
06
06
06
06
06
06
06
ENDCHAR

STARTCHAR braceleftbt-extension
ENCODING 58
SWIDTH 494 0
DWIDTH 12 0
BBX 7 28 5 -5
BITMAP
C0
C0
C0
C0
C0
C0
C0
C0
C0
C0
C0
C0
C0
C0
C0
C0
C0
C0
C0
C0
C0
C0
C0
C0
60
60
30
1E
ENDCHAR

STARTCHAR bracerightbt-extension
ENCODING 59
SWIDTH 494 0
DWIDTH 12 0
BBX 7 28 0 -5
BITMAP
06
06
06
06
06
06
06
06
06
06
06
06
06
06
06
06
06
06
06
06
06
06
06
06
0C
0C
18
F0
ENDCHAR

STARTCHAR braceleftmid-extension
ENCODING 60
SWIDTH 494 0
DWIDTH 12 0
BBX 5 28 2 -5
BITMAP
18
18
18
18
18
18
18
18
18
18
10
30
60
C0
60
30
10
18
18
18
18
18
18
18
18
18
18
18
ENDCHAR

STARTCHAR bracerightmid-extension
ENCODING 61
SWIDTH 494 0
DWIDTH 12 0
BBX 5 28 5 -5
BITMAP
C0
C0
C0
C0
C0
C0
C0
C0
C0
C0
40
60
30
18
30
60
40
C0
C0
C0
C0
C0
C0
C0
C0
C0
C0
C0
ENDCHAR

STARTCHAR braceex-extension
ENCODING 62
SWIDTH 494 0
DWIDTH 12 0
BBX 2 28 5 -5
BITMAP
C0
C0
C0
C0
C0
C0
C0
C0
C0
C0
C0
C0
C0
C0
C0
C0
C0
C0
C0
C0
C0
C0
C0
C0
C0
C0
C0
C0
ENDCHAR

STARTCHAR arrowvertex-extension
ENCODING 63
SWIDTH 603 0
DWIDTH 14 0
BBX 2 28 6 -5
BITMAP
C0
C0
C0
C0
C0
C0
C0
C0
C0
C0
C0
C0
C0
C0
C0
C0
C0
C0
C0
C0
C0
C0
C0
C0
C0
C0
C0
C0
ENDCHAR

STARTCHAR parenleftbt-extension
ENCODING 64
SWIDTH 384 0
DWIDTH 10 0
BBX 9 31 1 -8
BITMAP
C000
C000
C000
C000
C000
C000
C000
C000
C000
C000
C000
C000
C000
C000
C000
C000
C000
C000
C000
6000
6000
6000
6000
3000
3000
1800
1800
0C00
0600
0300
0180
ENDCHAR

STARTCHAR parenrightbt-extension
ENCODING 65
SWIDTH 384 0
DWIDTH 10 0
BBX 9 31 0 -8
BITMAP
0180
0180
0180
0180
0180
0180
0180
0180
0180
0180
0180
0180
0180
0180
0180
0180
0180
0180
0180
0300
0300
0300
0300
0600
0600
0C00
0C00
1800
3000
6000
C000
ENDCHAR

STARTCHAR parenleftex-extension
ENCODING 66
SWIDTH 384 0
DWIDTH 10 0
BBX 2 31 1 -8
BITMAP
C0
C0
C0
C0
C0
C0
C0
C0
C0
C0
C0
C0
C0
C0
C0
C0
C0
C0
C0
C0
C0
C0
C0
C0
C0
C0
C0
C0
C0
C0
C0
ENDCHAR

STARTCHAR parenrightex-extension
ENCODING 67
SWIDTH 384 0
DWIDTH 10 0
BBX 2 31 7 -8
BITMAP
C0
C0
C0
C0
C0
C0
C0
C0
C0
C0
C0
C0
C0
C0
C0
C0
C0
C0
C0
C0
C0
C0
C0
C0
C0
C0
C0
C0
C0
C0
C0
ENDCHAR

STARTCHAR angleleft-2
ENCODING 68
SWIDTH 329 0
DWIDTH 8 0
BBX 7 22 0 -5
BITMAP
06
06
0C
0C
18
18
30
30
60
60
C0
C0
60
60
30
30
18
18
0C
0C
06
06
ENDCHAR

STARTCHAR angleright-2
ENCODING 69
SWIDTH 329 0
DWIDTH 8 0
BBX 7 22 1 -5
BITMAP
C0
C0
60
60
30
30
18
18
0C
0C
06
06
0C
0C
18
18
30
30
60
60
C0
C0
ENDCHAR

STARTCHAR squareunion-1-fallback
ENCODING 70
SWIDTH 250 0
DWIDTH 4 0
BBX 0 0 0 0
BITMAP
ENDCHAR

STARTCHAR squareunion-2-fallback
ENCODING 71
SWIDTH 250 0
DWIDTH 4 0
BBX 0 0 0 0
BITMAP
ENDCHAR

STARTCHAR contourintegral-1-fallback
ENCODING 72
SWIDTH 250 0
DWIDTH 4 0
BBX 0 0 0 0
BITMAP
ENDCHAR

STARTCHAR contourintegral-2-fallback
ENCODING 73
SWIDTH 250 0
DWIDTH 4 0
BBX 0 0 0 0
BITMAP
ENDCHAR

STARTCHAR circledot-1-fallback
ENCODING 74
SWIDTH 250 0
DWIDTH 4 0
BBX 0 0 0 0
BITMAP
ENDCHAR

STARTCHAR circledot-2-fallback
ENCODING 75
SWIDTH 250 0
DWIDTH 4 0
BBX 0 0 0 0
BITMAP
ENDCHAR

STARTCHAR circleplus-1
ENCODING 76
SWIDTH 768 0
DWIDTH 14 0
BBX 12 13 1 0
BITMAP
1F80
39C0
6660
C630
C630
BFD0
BFD0
8610
C630
C630
6060
39C0
1F80
ENDCHAR

STARTCHAR circleplus-2
ENCODING 77
SWIDTH 768 0
DWIDTH 18 0
BBX 16 17 1 0
BITMAP
07E0
1E78
381C
6186
6186
C183
C183
CFF3
CFF3
C183
C183
C183
6186
6006
381C
1E78
07E0
ENDCHAR

STARTCHAR circlemultiply-1
ENCODING 78
SWIDTH 768 0
DWIDTH 14 0
BBX 12 13 1 0
BITMAP
1F80
39C0
6060
D9B0
DDB0
8F10
8610
8F10
DBB0
D9B0
6060
39C0
1F80
ENDCHAR

STARTCHAR circlemultiply-2
ENCODING 79
SWIDTH 768 0
DWIDTH 18 0
BBX 16 17 1 0
BITMAP
07E0
1E78
381C
6006
6816
CC33
C663
C3C3
C183
C3C3
C663
CC33
6816
6006
381C
1E78
07E0
ENDCHAR

STARTCHAR Sigma-1
ENCODING 80
SWIDTH 592 0
DWIDTH 11 0
BBX 10 13 0 0
BITMAP
FF80
C180
6080
3000
1800
0C00
0C00
0800
1000
2040
40C0
FF80
FF80
ENDCHAR

STARTCHAR Pi-1
ENCODING 81
SWIDTH 768 0
DWIDTH 13 0
BBX 11 13 1 0
BITMAP
FFE0
60C0
60C0
60C0
60C0
60C0
60C0
60C0
60C0
60C0
60C0
60C0
F1E0
ENDCHAR

STARTCHAR integral-1
ENCODING 82
SWIDTH 274 0
DWIDTH 6 0
BBX 6 22 0 -4
BITMAP
1C
1C
30
30
30
30
30
30
30
30
30
30
30
30
30
30
30
30
30
30
E0
E0
ENDCHAR

STARTCHAR union-1
ENCODING 83
SWIDTH 768 0
DWIDTH 14 0
BBX 12 9 1 0
BITMAP
C030
C030
C030
C030
C030
E070
6060
39C0
1F80
ENDCHAR

STARTCHAR intersection-1
ENCODING 84
SWIDTH 768 0
DWIDTH 14 0
BBX 12 9 1 0
BITMAP
1F80
39C0
6060
E070
C030
C030
C030
C030
C030
ENDCHAR

STARTCHAR multiunion-1-fallback
ENCODING 85
SWIDTH 250 0
DWIDTH 4 0
BBX 0 0 0 0
BITMAP
ENDCHAR

STARTCHAR logicalor-1
ENCODING 86
SWIDTH 603 0
DWIDTH 11 0
BBX 10 9 0 0
BITMAP
C0C0
C0C0
6180
6180
3300
3300
1E00
0C00
0C00
ENDCHAR

STARTCHAR logicaland-1
ENCODING 87
SWIDTH 603 0
DWIDTH 11 0
BBX 10 9 0 0
BITMAP
0C00
0C00
1E00
3300
3300
6180
6180
C0C0
C0C0
ENDCHAR

STARTCHAR Sigma-2
ENCODING 88
SWIDTH 592 0
DWIDTH 14 0
BBX 12 17 1 0
BITMAP
FFF0
E010
7010
3800
1C00
0E00
0700
0380
0300
0600
0C00
1800
3000
6010
C010
FFF0
FFF0
ENDCHAR

STARTCHAR Pi-2
ENCODING 89
SWIDTH 768 0
DWIDTH 18 0
BBX 16 17 1 0
BITMAP
FFFF
300C
300C
300C
300C
300C
300C
300C
300C
300C
300C
300C
300C
300C
300C
300C
FC3F
ENDCHAR

STARTCHAR integral-2
ENCODING 90
SWIDTH 274 0
DWIDTH 8 0
BBX 8 28 0 -5
BITMAP
07
0F
1B
18
18
18
18
18
18
18
18
18
18
18
18
18
18
18
18
18
18
18
18
18
18
D8
F0
E0
ENDCHAR

STARTCHAR union-2
ENCODING 91
SWIDTH 768 0
DWIDTH 18 0
BBX 16 13 1 0
BITMAP
C003
C003
C003
C003
C003
C003
C003
C003
6006
6006
381C
1FF8
07E0
ENDCHAR

STARTCHAR intersection-2
ENCODING 92
SWIDTH 768 0
DWIDTH 18 0
BBX 16 13 1 0
BITMAP
07E0
1FF8
381C
6006
6006
C003
C003
C003
C003
C003
C003
C003
C003
ENDCHAR

STARTCHAR multiunion-2-fallback
ENCODING 93
SWIDTH 250 0
DWIDTH 4 0
BBX 0 0 0 0
BITMAP
ENDCHAR

STARTCHAR logicalor-2
ENCODING 94
SWIDTH 603 0
DWIDTH 15 0
BBX 13 12 1 0
BITMAP
C018
C018
6030
6030
3060
3060
18C0
18C0
0D80
0D80
0700
0700
ENDCHAR

STARTCHAR logicaland-2
ENCODING 95
SWIDTH 603 0
DWIDTH 15 0
BBX 13 12 1 0
BITMAP
0700
0700
0D80
0D80
18C0
18C0
3060
3060
6030
6030
C018
C018
ENDCHAR

STARTCHAR coproduct-1-fallback
ENCODING 96
SWIDTH 250 0
DWIDTH 4 0
BBX 0 0 0 0
BITMAP
ENDCHAR

STARTCHAR coproduct-2-fallback
ENCODING 97
SWIDTH 250 0
DWIDTH 4 0
BBX 0 0 0 0
BITMAP
ENDCHAR

STARTCHAR asciicircum
ENCODING 98
SWIDTH 606 0
DWIDTH 6 0
BBX 5 6 0 5
BITMAP
20
20
50
50
88
88
ENDCHAR

STARTCHAR asciicircum-1
ENCODING 99
SWIDTH 606 0
DWIDTH 10 0
BBX 9 9 0 5
BITMAP
0800
0800
1C00
1400
3600
2200
6300
4100
C180
ENDCHAR

STARTCHAR asciicircum-2
ENCODING 100
SWIDTH 606 0
DWIDTH 10 0
BBX 9 9 0 5
BITMAP
0800
0800
1C00
1400
3600
2200
6300
4100
C180
ENDCHAR

STARTCHAR asciitilde
ENCODING 101
SWIDTH 606 0
DWIDTH 9 0
BBX 8 2 0 4
BITMAP
71
8E
ENDCHAR

STARTCHAR asciitilde-1
ENCODING 102
SWIDTH 606 0
DWIDTH 11 0
BBX 10 3 0 5
BITMAP
38C0
6D80
C700
ENDCHAR

STARTCHAR asciitilde-2
ENCODING 103
SWIDTH 606 0
DWIDTH 11 0
BBX 10 3 0 5
BITMAP
38C0
6D80
C700
ENDCHAR

STARTCHAR bracketleft-2
ENCODING 104
SWIDTH 333 0
DWIDTH 8 0
BBX 5 22 2 -5
BITMAP
F8
C0
C0
C0
C0
C0
C0
C0
C0
C0
C0
C0
C0
C0
C0
C0
C0
C0
C0
C0
C0
F8
ENDCHAR

STARTCHAR bracketright-2
ENCODING 105
SWIDTH 333 0
DWIDTH 8 0
BBX 5 22 1 -5
BITMAP
F8
18
18
18
18
18
18
18
18
18
18
18
18
18
18
18
18
18
18
18
18
F8
ENDCHAR

STARTCHAR bracketleftbt-2
ENCODING 106
SWIDTH 384 0
DWIDTH 10 0
BBX 7 28 1 -5
BITMAP
C0
C0
C0
C0
C0
C0
C0
C0
C0
C0
C0
C0
C0
C0
C0
C0
C0
C0
C0
C0
C0
C0
C0
C0
C0
C0
C0
FE
ENDCHAR

STARTCHAR bracketrightbt-2
ENCODING 107
SWIDTH 384 0
DWIDTH 10 0
BBX 7 28 2 -5
BITMAP
06
06
06
06
06
06
06
06
06
06
06
06
06
06
06
06
06
06
06
06
06
06
06
06
06
06
06
FE
ENDCHAR

STARTCHAR bracketlefttp-2
ENCODING 108
SWIDTH 384 0
DWIDTH 10 0
BBX 7 28 1 -5
BITMAP
FE
C0
C0
C0
C0
C0
C0
C0
C0
C0
C0
C0
C0
C0
C0
C0
C0
C0
C0
C0
C0
C0
C0
C0
C0
C0
C0
C0
ENDCHAR

STARTCHAR bracketrighttp-2
ENCODING 109
SWIDTH 384 0
DWIDTH 10 0
BBX 7 28 2 -5
BITMAP
FE
06
06
06
06
06
06
06
06
06
06
06
06
06
06
06
06
06
06
06
06
06
06
06
06
06
06
06
ENDCHAR

STARTCHAR braceleft-2
ENCODING 110
SWIDTH 480 0
DWIDTH 10 0
BBX 8 22 1 -5
BITMAP
07
0C
18
18
18
18
18
10
30
20
C0
20
30
10
18
18
18
18
18
18
0C
07
ENDCHAR

STARTCHAR braceright-2
ENCODING 111
SWIDTH 480 0
DWIDTH 10 0
BBX 8 22 1 -5
BITMAP
E0
30
18
18
18
18
18
08
0C
04
03
04
0C
08
18
18
18
18
18
18
30
E0
ENDCHAR

STARTCHAR radical-1
ENCODING 112
SWIDTH 549 0
DWIDTH 10 0
BBX 10 17 0 0
BITMAP
0040
0040
0040
0080
0080
0080
0080
3080
7100
D900
1900
1900
0D00
0D00
0600
0600
0600
ENDCHAR

STARTCHAR radical-2
ENCODING 113
SWIDTH 549 0
DWIDTH 14 0
BBX 14 23 0 0
BITMAP
0004
0004
0004
000C
000C
0008
0008
0008
0018
3018
7010
D810
1810
0C30
0C30
0620
0620
0320
0360
01C0
01C0
00C0
00C0
ENDCHAR

STARTCHAR radical-3
ENCODING 114
SWIDTH 549 0
DWIDTH 14 0
BBX 14 23 0 0
BITMAP
0004
0004
0004
000C
000C
0008
0008
0008
0018
3018
7010
D810
1810
0C30
0C30
0620
0620
0320
0360
01C0
01C0
00C0
00C0
ENDCHAR

STARTCHAR radical-4
ENCODING 115
SWIDTH 549 0
DWIDTH 14 0
BBX 14 23 0 0
BITMAP
0004
0004
0004
000C
000C
0008
0008
0008
0018
3018
7010
D810
1810
0C30
0C30
0620
0620
0320
0360
01C0
01C0
00C0
00C0
ENDCHAR

STARTCHAR radicalbt-2-fallback
ENCODING 116
SWIDTH 250 0
DWIDTH 4 0
BBX 0 0 0 0
BITMAP
ENDCHAR

STARTCHAR radicalex-2-fallback
ENCODING 117
SWIDTH 250 0
DWIDTH 4 0
BBX 0 0 0 0
BITMAP
ENDCHAR

STARTCHAR radicaltp-2-fallback
ENCODING 118
SWIDTH 250 0
DWIDTH 4 0
BBX 0 0 0 0
BITMAP
ENDCHAR

STARTCHAR arrowdblex-2-fallback
ENCODING 119
SWIDTH 250 0
DWIDTH 4 0
BBX 0 0 0 0
BITMAP
ENDCHAR

STARTCHAR arrowup-extension
ENCODING 120
SWIDTH 603 0
DWIDTH 14 0
BBX 12 28 1 -5
BITMAP
0600
0F00
1F80
36C0
6660
C630
0600
0600
0600
0600
0600
0600
0600
0600
0600
0600
0600
0600
0600
0600
0600
0600
0600
0600
0600
0600
0600
0600
ENDCHAR

STARTCHAR arrowdown-extension
ENCODING 121
SWIDTH 603 0
DWIDTH 14 0
BBX 12 28 1 -5
BITMAP
0600
0600
0600
0600
0600
0600
0600
0600
0600
0600
0600
0600
0600
0600
0600
0600
0600
0600
0600
0600
0600
0600
C630
6660
36C0
1F80
0F00
0600
ENDCHAR

STARTCHAR horizbracetpleft-fallback
ENCODING 122
SWIDTH 250 0
DWIDTH 4 0
BBX 0 0 0 0
BITMAP
ENDCHAR

STARTCHAR horizbracetpright-fallback
ENCODING 123
SWIDTH 250 0
DWIDTH 4 0
BBX 0 0 0 0
BITMAP
ENDCHAR

STARTCHAR horizbracebtleft-fallback
ENCODING 124
SWIDTH 250 0
DWIDTH 4 0
BBX 0 0 0 0
BITMAP
ENDCHAR

STARTCHAR horizbracebtright-fallback
ENCODING 125
SWIDTH 250 0
DWIDTH 4 0
BBX 0 0 0 0
BITMAP
ENDCHAR

STARTCHAR arrowdblup-2-fallback
ENCODING 126
SWIDTH 250 0
DWIDTH 4 0
BBX 0 0 0 0
BITMAP
ENDCHAR

STARTCHAR arrowdbldown-2-fallback
ENCODING 127
SWIDTH 250 0
DWIDTH 4 0
BBX 0 0 0 0
BITMAP
ENDCHAR

STARTCHAR parenleft-1
ENCODING 160
SWIDTH 333 0
DWIDTH 6 0
BBX 4 17 1 -4
BITMAP
10
30
60
60
C0
C0
C0
C0
C0
C0
C0
C0
C0
60
60
30
10
ENDCHAR

STARTCHAR parenright-1
ENCODING 161
SWIDTH 333 0
DWIDTH 6 0
BBX 4 17 1 -4
BITMAP
80
C0
60
60
30
30
30
30
30
30
30
30
30
60
60
C0
80
ENDCHAR

STARTCHAR bracketleft-1
ENCODING 162
SWIDTH 333 0
DWIDTH 6 0
BBX 4 17 1 -4
BITMAP
F0
C0
C0
C0
C0
C0
C0
C0
C0
C0
C0
C0
C0
C0
C0
C0
F0
ENDCHAR

STARTCHAR bracketright-1
ENCODING 163
SWIDTH 333 0
DWIDTH 6 0
BBX 4 17 1 -4
BITMAP
F0
30
30
30
30
30
30
30
30
30
30
30
30
30
30
30
F0
ENDCHAR

STARTCHAR bracketleftbt-1
ENCODING 164
SWIDTH 384 0
DWIDTH 7 0
BBX 5 22 1 -4
BITMAP
C0
C0
C0
C0
C0
C0
C0
C0
C0
C0
C0
C0
C0
C0
C0
C0
C0
C0
C0
C0
C0
F8
ENDCHAR

STARTCHAR bracketrightbt-1
ENCODING 165
SWIDTH 384 0
DWIDTH 7 0
BBX 5 22 1 -4
BITMAP
18
18
18
18
18
18
18
18
18
18
18
18
18
18
18
18
18
18
18
18
18
F8
ENDCHAR

STARTCHAR bracketlefttp-1
ENCODING 166
SWIDTH 384 0
DWIDTH 7 0
BBX 5 22 1 -4
BITMAP
F8
C0
C0
C0
C0
C0
C0
C0
C0
C0
C0
C0
C0
C0
C0
C0
C0
C0
C0
C0
C0
C0
ENDCHAR

STARTCHAR bracketrighttp-1
ENCODING 167
SWIDTH 384 0
DWIDTH 7 0
BBX 5 22 1 -4
BITMAP
F8
18
18
18
18
18
18
18
18
18
18
18
18
18
18
18
18
18
18
18
18
18
ENDCHAR

STARTCHAR braceleft-1
ENCODING 168
SWIDTH 480 0
DWIDTH 9 0
BBX 7 17 1 -4
BITMAP
0E
18
30
30
30
30
30
60
C0
60
30
30
30
30
30
18
0E
ENDCHAR

STARTCHAR braceright-1
ENCODING 169
SWIDTH 480 0
DWIDTH 9 0
BBX 7 17 1 -4
BITMAP
E0
30
18
18
18
18
18
0C
06
0C
18
18
18
18
18
30
E0
ENDCHAR

STARTCHAR angleleft-1
ENCODING 170
SWIDTH 329 0
DWIDTH 6 0
BBX 5 17 0 -3
BITMAP
18
18
30
30
60
60
C0
C0
80
C0
C0
60
60
30
30
18
18
ENDCHAR

STARTCHAR angleright-1
ENCODING 171
SWIDTH 329 0
DWIDTH 6 0
BBX 5 17 0 -3
BITMAP
C0
C0
60
60
30
30
18
18
08
18
18
30
30
60
60
C0
C0
ENDCHAR

STARTCHAR barvertex-fallback
ENCODING 172
SWIDTH 250 0
DWIDTH 4 0
BBX 0 0 0 0
BITMAP
ENDCHAR

STARTCHAR bardblvertex-fallback
ENCODING 173
SWIDTH 250 0
DWIDTH 4 0
BBX 0 0 0 0
BITMAP
ENDCHAR

STARTCHAR slash-1
ENCODING 174
SWIDTH 278 0
DWIDTH 5 0
BBX 5 13 0 0
BITMAP
18
18
18
30
30
30
60
60
60
60
C0
C0
C0
ENDCHAR

STARTCHAR backslash-1
ENCODING 175
SWIDTH 606 0
DWIDTH 10 0
BBX 7 14 1 0
BITMAP
80
80
40
40
20
20
10
10
08
08
04
04
02
02
ENDCHAR

STARTCHAR parenleft-2
ENCODING 176
SWIDTH 333 0
DWIDTH 8 0
BBX 6 22 1 -5
BITMAP
0C
18
30
20
60
60
40
C0
C0
C0
C0
C0
C0
C0
C0
40
60
60
20
30
18
0C
ENDCHAR

STARTCHAR parenright-2
ENCODING 177
SWIDTH 333 0
DWIDTH 8 0
BBX 6 22 1 -5
BITMAP
C0
60
30
10
18
18
08
0C
0C
0C
0C
0C
0C
0C
0C
08
18
18
10
30
60
C0
ENDCHAR

STARTCHAR parenleft-3
ENCODING 178
SWIDTH 333 0
DWIDTH 8 0
BBX 6 22 1 -5
BITMAP
0C
18
30
20
60
60
40
C0
C0
C0
C0
C0
C0
C0
C0
40
60
60
20
30
18
0C
ENDCHAR

STARTCHAR parenright-3
ENCODING 179
SWIDTH 333 0
DWIDTH 8 0
BBX 6 22 1 -5
BITMAP
C0
60
30
10
18
18
08
0C
0C
0C
0C
0C
0C
0C
0C
08
18
18
10
30
60
C0
ENDCHAR

STARTCHAR bracketleft-3
ENCODING 180
SWIDTH 333 0
DWIDTH 8 0
BBX 5 22 2 -5
BITMAP
F8
C0
C0
C0
C0
C0
C0
C0
C0
C0
C0
C0
C0
C0
C0
C0
C0
C0
C0
C0
C0
F8
ENDCHAR

STARTCHAR bracketright-3
ENCODING 181
SWIDTH 333 0
DWIDTH 8 0
BBX 5 22 1 -5
BITMAP
F8
18
18
18
18
18
18
18
18
18
18
18
18
18
18
18
18
18
18
18
18
F8
ENDCHAR

STARTCHAR bracketleftbt-3
ENCODING 182
SWIDTH 384 0
DWIDTH 10 0
BBX 7 28 1 -5
BITMAP
C0
C0
C0
C0
C0
C0
C0
C0
C0
C0
C0
C0
C0
C0
C0
C0
C0
C0
C0
C0
C0
C0
C0
C0
C0
C0
C0
FE
ENDCHAR

STARTCHAR bracketrightbt-3
ENCODING 183
SWIDTH 384 0
DWIDTH 10 0
BBX 7 28 2 -5
BITMAP
06
06
06
06
06
06
06
06
06
06
06
06
06
06
06
06
06
06
06
06
06
06
06
06
06
06
06
FE
ENDCHAR

STARTCHAR bracketlefttp-3
ENCODING 184
SWIDTH 384 0
DWIDTH 10 0
BBX 7 28 1 -5
BITMAP
FE
C0
C0
C0
C0
C0
C0
C0
C0
C0
C0
C0
C0
C0
C0
C0
C0
C0
C0
C0
C0
C0
C0
C0
C0
C0
C0
C0
ENDCHAR

STARTCHAR bracketrighttp-3
ENCODING 185
SWIDTH 384 0
DWIDTH 10 0
BBX 7 28 2 -5
BITMAP
FE
06
06
06
06
06
06
06
06
06
06
06
06
06
06
06
06
06
06
06
06
06
06
06
06
06
06
06
ENDCHAR

STARTCHAR braceleft-3
ENCODING 186
SWIDTH 480 0
DWIDTH 10 0
BBX 8 22 1 -5
BITMAP
07
0C
18
18
18
18
18
10
30
20
C0
20
30
10
18
18
18
18
18
18
0C
07
ENDCHAR

STARTCHAR braceright-3
ENCODING 187
SWIDTH 480 0
DWIDTH 10 0
BBX 8 22 1 -5
BITMAP
E0
30
18
18
18
18
18
08
0C
04
03
04
0C
08
18
18
18
18
18
18
30
E0
ENDCHAR

STARTCHAR angleleft-3
ENCODING 188
SWIDTH 329 0
DWIDTH 8 0
BBX 7 22 0 -5
BITMAP
06
06
0C
0C
18
18
30
30
60
60
C0
C0
60
60
30
30
18
18
0C
0C
06
06
ENDCHAR

STARTCHAR angleright-3
ENCODING 189
SWIDTH 329 0
DWIDTH 8 0
BBX 7 22 1 -5
BITMAP
C0
C0
60
60
30
30
18
18
0C
0C
06
06
0C
0C
18
18
30
30
60
60
C0
C0
ENDCHAR

STARTCHAR slash-3
ENCODING 190
SWIDTH 278 0
DWIDTH 7 0
BBX 7 17 0 0
BITMAP
06
06
06
0C
0C
0C
18
18
30
30
30
60
60
60
C0
C0
C0
ENDCHAR

STARTCHAR backslash-3
ENCODING 191
SWIDTH 606 0
DWIDTH 10 0
BBX 7 14 1 0
BITMAP
80
80
40
40
20
20
10
10
08
08
04
04
02
02
ENDCHAR
ENDFONT
